<?xml version="1.0" encoding="UTF-8" standalone="no"?>
<!-- Created with Inkscape (http://www.inkscape.org/) -->

<svg
   version="1.1"
   id="svg1"
   width="16"
   height="16"
   viewBox="0 0 16 16"
   xmlns="http://www.w3.org/2000/svg"
   xmlns:svg="http://www.w3.org/2000/svg">
  <defs
     id="defs1" />
  <g
     id="g1">
    <path
       style="fill:#000000;stroke-width:0.0470613"
       d="M 6.0572443,15.98542 5.6556719,16 5.4909579,15.9645 5.3262419,15.929 5.1985631,15.84504 5.0708865,15.76107 4.9098548,15.518272 4.7488253,15.275471 4.6534383,14.966319 4.5580483,14.657165 4.5273303,14.425112 4.4966123,14.19306 4.4731543,14.067214 4.4496973,13.94137 4.311467,13.89318 4.1732367,13.84499 V 13.501191 13.157395 L 3.6522095,12.927275 3.1311815,12.697153 2.9698202,12.587651 2.8084589,12.478148 v 0.09008 0.09008 l -0.1134676,0.132043 -0.1134696,0.132044 -0.5875679,0.01551 -0.587568,0.01548 -0.1478447,-0.07645 -0.1478427,-0.07645 -0.077533,-0.162589 -0.0775332,-0.162588 H 0.82102393 0.68641795 L 0.57417372,12.363066 0.4619295,12.250822 0.4034966,12.045401 0.3450616,11.83998 0.3413916,11.345836 0.3377216,10.851692 0.4051573,10.619253 0.4725909,10.386816 0.4169218,10.368256 0.3612506,10.349696 V 10.188903 10.02811 l 0.082356,1.41e-4 0.082358,1.41e-4 1.5294947,0.283689 1.5294948,0.283689 0.1647161,0.04533 0.1647139,0.04533 0.2890318,2.9e-4 0.2890317,2.9e-4 0.027609,-0.110007 0.027609,-0.110007 0.1023831,-0.130157 0.102381,-0.130158 0.1927756,0.0306 0.1927735,0.0306 0.2438085,0.111348 0.2438085,0.111348 0.1379193,0.190391 0.1379173,0.190391 0.1053334,0.343146 0.1053336,0.343148 0.017375,0.05882 0.017375,0.05882 h 0.093065 0.093061 L 6.2597288,11.428235 6.1864811,11.181163 6.0985059,10.945856 6.0105308,10.71055 5.8636312,10.532453 5.7167299,10.354353 5.4885465,10.238723 5.2603633,10.123094 4.8226844,10.048533 4.3850034,9.9739719 4.3188968,9.9097494 4.2527903,9.8455265 4.3099563,8.442646 4.3671224,7.0397655 4.4604633,6.2161915 4.5538042,5.3926173 4.6479288,4.9220034 4.7420556,4.4513897 4.8583098,4.0659772 4.9745619,3.6805647 5.0930347,3.539768 5.2115075,3.3989716 5.504176,3.2354701 5.7968465,3.0719685 6.1262745,2.9089975 6.4557047,2.7460264 6.5778038,2.7172479 6.699903,2.6884694 6.796035,2.7934173 6.892167,2.8983645 6.991763,3.096821 7.091359,3.295277 7.134814,3.5203735 7.178269,3.7454695 7.203758,3.8968739 7.229249,4.0482784 7.0222995,4.1398214 6.8153501,4.2313654 6.7377381,4.3814499 6.6601261,4.531534 6.6520361,4.687582 6.6439461,4.8436297 6.2674548,4.8980437 5.8909645,4.9524577 5.789276,5.0179207 5.6875875,5.0833837 5.6326775,5.2497654 5.5777655,5.4161158 H 5.4710614 5.3643532 l -0.089652,0.098959 -0.08965,0.098958 -0.015841,0.8014464 -0.015841,0.8014468 0.030077,0.1603212 0.030074,0.1603218 0.1387051,0.1235868 0.1387072,0.1235874 v 0.07814 0.078141 l 0.1180499,0.110904 0.1180538,0.1109038 0.3172654,0.1027834 0.3172654,0.1027841 0.029175,0.1789278 0.029175,0.1789284 0.085708,0.062671 0.085707,0.062671 H 6.647167 6.703002 L 6.751026,8.7927707 6.79905,8.7339437 6.830877,8.2868605 6.862702,7.8397774 6.810732,6.5458563 6.75876,5.2519354 l -0.057413,-0.05261 -0.057413,-0.05261 -0.2934481,0.03048 -0.2934481,0.03048 -0.046395,0.046395 -0.046392,0.046394 -0.013125,0.1166529 -0.013125,0.116653 0.1259744,0.01456 0.1259764,0.01456 0.058727,0.070764 0.05873,0.070763 -0.00125,0.8575355 -0.00125,0.8575359 -0.055797,0.1042578 -0.055798,0.1042581 H 6.0302692 5.8672099 v 0.094123 0.094123 l 0.086963,0.086963 0.086963,0.086963 0.188326,0.030114 0.1883261,0.030115 0.1247324,0.098114 0.1247323,0.098114 V 8.4824448 8.718258 L 6.6084261,8.6989462 6.5495992,8.6796344 6.5341522,8.5185439 6.5187053,8.3574531 6.4488956,8.2799531 6.3790837,8.2024523 6.1584415,8.1469999 5.9377971,8.091547 5.8554391,8.0171953 5.7730832,7.9428435 V 7.7906515 7.6384681 L 5.6130964,7.6084546 5.4531119,7.5784414 5.3923028,7.5051728 5.3314959,7.4319043 5.328759,6.5724271 5.325999,5.7129495 5.38833,5.6378415 l 0.062332,-0.075108 0.145819,-0.014487 0.1458211,-0.014485 0.064106,-0.193211 0.064106,-0.1932108 0.1203347,-0.054828 0.1203347,-0.054828 0.3419286,-0.028903 0.3419287,-0.028904 0.029071,0.047037 0.029069,0.047037 0.047114,0.8887655 0.047112,0.8887648 0.055516,2.5736538 0.055516,2.5736532 -0.082678,0.126181 -0.082675,0.12618 -0.017935,0.359156 -0.017935,0.359156 -0.1891099,-0.01495 -0.1891098,-0.01495 v 0.07377 0.07377 l 0.011756,6.22e-4 0.011756,6.22e-4 0.183694,0.06395 0.1836961,0.06394 0.015406,0.276544 0.015406,0.276543 -0.028115,0.434032 -0.028113,0.434032 -0.2768692,0.05447 -0.2768669,0.05447 v 0.04358 0.04358 l 0.2000097,0.08644 0.2000118,0.08644 0.094123,0.028 0.094123,0.028 0.082358,-0.414673 0.082356,-0.414674 v -0.990822 -0.990836 l 0.077303,-0.06415 0.077301,-0.06415 -0.031405,-2.000546 -0.031402,-2.0005433 -0.050807,-1.2853572 -0.050809,-1.2853572 0.024553,-0.024553 0.024553,-0.024553 0.1921307,-0.02577 0.1921328,-0.02577 1.411e-4,0.041493 1.409e-4,0.041493 0.069656,0.7294515 0.069656,0.7294514 0.05379,0.4706138 0.05379,0.4706138 0.052895,0.034575 0.052895,0.034575 1.7883317,-0.00579 1.7883322,-0.00579 1.741162,-0.02878 1.741163,-0.028781 -0.01408,-0.1882455 -0.01408,-0.1882454 -0.115193,-0.8000435 -0.115192,-0.8000434 -0.02447,-0.1058882 -0.02447,-0.105888 h 0.163797 0.163798 l 0.04683,0.17648 0.04683,0.1764802 0.122598,0.7059207 0.122599,0.7059207 0.04749,0.2470723 0.0475,0.2470722 h 0.08032 0.08032 l 0.104594,-0.073261 0.104591,-0.073261 v -0.091454 -0.091454 h -0.161938 -0.161937 l -0.02544,-0.041176 -0.02545,-0.041175 -0.07534,-0.8324495 -0.07534,-0.8324495 0.02594,-0.067603 0.02595,-0.067603 h 0.11913 0.119131 v -0.086828 -0.086828 l -0.08236,-0.074219 -0.08236,-0.074219 -0.12942,-0.032299 -0.129419,-0.032299 v -0.059171 -0.059171 l 0.198304,0.036262 0.198303,0.036262 0.08406,0.1038167 0.08406,0.1038164 v 0.087253 0.087253 l 0.09811,0.052506 0.09811,0.052505 0.07092,0.1697325 0.07092,0.169733 0.02653,0.632816 L 16,7.4521472 15.92603,7.598803 l -0.07397,0.1466561 -0.02922,0.1328415 -0.02922,0.1328421 -0.21002,0.092902 -0.210021,0.092902 0.001,0.1742777 10e-4,0.174278 0.0448,0.5647368 0.0448,0.5647365 0.0037,0.7878273 0.0037,0.787827 -0.04668,0.08281 -0.04669,0.08281 0.124515,0.130487 0.124513,0.130488 -0.0037,1.349112 -0.0037,1.349111 -0.142508,0.127332 -0.142508,0.127331 -0.251838,0.05467 -0.251839,0.05468 -0.37067,0.02097 -0.370672,0.02097 -0.183163,0.208085 -0.183164,0.208086 -0.202278,0.07725 -0.202278,0.07725 -0.34983,0.0087 -0.349833,0.0087 -0.175096,-0.03716 -0.175093,-0.03717 -0.135429,-0.113956 -0.13543,-0.113955 -1.854299,0.235479 -1.8543006,0.23548 -0.6353291,-0.01377 -0.6353269,-0.01377 -0.1364057,0.155352 -0.1364058,0.155355 -0.1444111,0.07468 -0.1444132,0.07468 z m 0.7867277,-0.593417 0.058827,10e-4 v -0.06428 -0.06428 l -0.2863487,-0.104401 -0.2863466,-0.104408 -0.090144,-0.09014 -0.090144,-0.09014 -3.94e-5,-0.341195 -3.95e-5,-0.341195 -0.047933,-0.517675 -0.047933,-0.517676 -0.095292,-0.541205 -0.095292,-0.541206 -0.052163,-0.175588 -0.052163,-0.175589 -0.075176,-0.02538 -0.075176,-0.02538 -0.099219,-0.19905 -0.099221,-0.19905 L 5.2553581,11.169281 5.1005467,11.063393 H 4.945416 4.7902853 l -0.1194639,0.105888 -0.1194638,0.105888 -0.071871,0.282272 -0.071869,0.282272 -0.049586,0.776609 -0.049584,0.77661 0.029401,0.200009 0.029401,0.200012 h 0.1383008 0.1383008 l 8.293e-4,-0.388257 8.295e-4,-0.388256 0.066227,-0.312461 0.066229,-0.312461 0.1043217,-0.2425 0.1043196,-0.242501 0.097944,-0.0686 0.097942,-0.06861 0.1660099,7.26e-4 0.1660078,7.25e-4 0.051887,0.03457 0.051887,0.03457 0.076075,0.235307 0.076075,0.235307 0.096277,0.541204 0.096279,0.541206 0.030468,0.771004 0.030469,0.771001 0.098251,0.112649 0.098251,0.112651 0.2823678,0.115285 0.2823698,0.115285 z M 5.3460409,14.875446 h 0.095684 l 0.069963,-0.106775 0.069961,-0.106775 0.057776,-0.336919 0.057774,-0.336921 L 5.6439569,13.53307 5.5907139,13.078084 5.482009,12.86117 5.3733041,12.644257 l -0.053365,-0.01598 -0.053364,-0.01598 -0.07428,0.07428 -0.074282,0.07428 -0.049801,0.174892 -0.049804,0.174893 -0.028881,0.356192 -0.028881,0.356191 0.056609,0.3262 0.056609,0.326198 0.088246,0.200012 0.088246,0.200009 z m 5.9763191,-0.768827 0.733658,-0.0298 0.506369,-0.06902 0.506368,-0.06903 0.42416,-0.07795 0.424162,-0.07795 0.09912,-0.08026 0.09912,-0.08026 0.02256,-0.234809 0.02257,-0.23481 -0.958089,0.105028 -0.958089,0.105032 -0.705923,0.05091 -0.705921,0.05091 -0.20001,0.02592 -0.200011,0.02592 v 0.198422 0.198421 l 0.07815,0.111574 0.07815,0.111575 z M 8.5115685,13.463604 h 0.1842372 l 0.1374507,-0.07108 0.1374528,-0.07108 0.05534,-0.103404 0.055342,-0.103406 -0.00362,-0.127446 -0.00362,-0.127449 -0.07698,-0.148858 -0.076977,-0.14886 -0.1691967,-0.07069 -0.1691968,-0.07069 -0.1542702,0.02894 -0.1542702,0.02894 -0.1172391,0.13933 -0.117237,0.13933 -0.030189,0.09511 -0.030189,0.09512 0.053873,0.163239 0.053873,0.16324 0.1205939,0.09486 0.1205938,0.09486 z m 2.0328275,-0.212423 0.193904,-0.02071 0.70592,-0.05127 0.705923,-0.05127 1.032068,-0.116999 1.032069,-0.117001 0.03858,-0.02384 0.03858,-0.02384 v -0.142147 -0.142145 l -0.12942,0.02573 -0.129419,0.02573 -0.635329,0.07256 -0.635327,0.07256 -0.886102,0.07016 -0.886103,0.07016 h -0.274818 -0.274818 l -0.07444,0.02856 -0.07444,0.02856 v 0.128305 0.128306 l 0.02964,0.02964 0.02964,0.02964 z m 4.586862,-0.456574 0.0679,-0.0134 0.09519,-0.127617 0.09519,-0.127617 v -0.212971 -0.212971 l -0.08731,-0.09647 -0.0873,-0.09647 -0.07349,0.01397 -0.07349,0.01396 -0.02353,0.415439 -0.02353,0.41544 0.02123,0.02104 0.02123,0.02105 z m -4.3106,-0.153233 0.52944,-0.03012 0.657778,-0.04779 0.657778,-0.04779 0.796676,-0.08806 0.796676,-0.08806 0.03568,-0.05774 0.03568,-0.05774 -0.01396,-0.121446 -0.01396,-0.121446 -0.08787,0.01023 -0.08787,0.01023 -0.823574,0.0933 -0.823575,0.0933 -0.729451,0.04938 -0.72945,0.04938 -0.392549,0.02815 -0.392546,0.02815 0.02718,0.101306 0.02718,0.101307 6.21e-4,0.06279 6.22e-4,0.06279 z m -9.4536546,-0.523259 0.053144,-0.08988 V 11.477584 10.92694 l -0.057077,-0.05705 -0.057079,-0.05705 -0.056486,0.137082 -0.056487,0.137082 -8.293e-4,0.447083 -8.294e-4,0.447083 0.061261,0.113414 0.061263,0.113414 z M 8.3686771,11.95764 h 0.6658331 l -0.029494,-0.382488 -0.029496,-0.382489 -0.083368,-0.169862 -0.083368,-0.169862 -0.1573161,-0.10476 -0.157314,-0.104762 -0.2465828,-0.09226 -0.2465807,-0.09226 -0.1801961,-0.03381 -0.1801962,-0.0338 0.031122,0.0811 0.031122,0.0811 v 0.702072 0.702071 z m 1.7234279,-0.0463 0.175582,7.67e-4 1.953048,-0.147942 1.953047,-0.147941 0.04706,-0.04352 0.04706,-0.04352 -0.0028,-1.151014 -0.0028,-1.1510147 -0.05106,-0.051059 -0.05105,-0.051059 -1.522679,0.052043 -1.52268,0.052043 -0.651341,0.030232 -0.6513426,0.030233 -0.027213,0.070914 -0.027213,0.070914 0.057566,1.1336957 0.057566,1.133698 0.021847,0.105888 0.021847,0.105888 z m 0.422654,-0.257822 -0.411786,0.02883 v -0.04846 -0.04846 l 0.15295,-0.02442 0.152949,-0.02442 0.847103,-0.0494 0.847106,-0.0494 0.957129,-0.07321 0.957127,-0.07321 0.02724,0.02724 0.02724,0.02724 -0.02325,0.02325 -0.02325,0.02325 -1.549378,0.116168 -1.549381,0.116169 z m -0.329429,-0.354665 -0.08236,-4.7e-5 v -0.06771 -0.06771 l 0.20001,-0.02582 0.200012,-0.02582 1.234593,-0.07154 1.234591,-0.07154 0.571953,-0.03075 0.571953,-0.03075 -0.022,0.06641 -0.022,0.06641 -0.4433,0.03318 -0.443301,0.03317 -1.4589,0.09632 -1.458904,0.09632 z m 0.55985,-0.487808 -0.699043,0.03204 0.01709,-0.08981 0.01707,-0.08981 0.234883,-0.01167 0.234885,-0.01167 1.341249,-0.07034 1.341249,-0.07034 0.411787,-0.02886 0.411788,-0.02886 v 0.09912 0.09912 l -0.08236,5.4e-4 -0.08236,5.39e-4 -1.223596,0.06899 -1.223596,0.06899 z m -0.486481,-0.45407 -0.197233,5.81e-4 -0.03162,-0.05116 -0.03162,-0.05116 0.04061,-0.03887 0.04061,-0.03887 1.600087,-0.0747 1.600086,-0.0747 0.388257,-0.02773 0.388257,-0.027733 v 0.093352 0.09335 l -0.411788,0.03034 -0.411786,0.03034 -1.388312,0.06819 -1.38831,0.0682 z m 0.161938,-0.5179355 -0.411789,8.501e-4 v -0.094123 -0.094123 l 0.200012,-7.049e-4 0.200012,-7.05e-4 1.694209,-0.069037 1.694208,-0.069036 0.129421,-8.709e-4 0.129418,-8.5e-4 v 0.094123 0.094123 l -0.08236,8.501e-4 -0.08236,8.502e-4 -1.529495,0.068911 -1.529494,0.068911 z m -9.67153148,1.9848955 0.0549102,-0.05491 0.0182046,-0.435131 0.0181838,-0.435132 -0.0530732,-0.137083 -0.0530732,-0.137082 -0.0549102,0.05491 -0.0549122,0.05491 -0.0181838,0.435132 -0.0182046,0.435131 0.0530732,0.137083 0.0530732,0.137083 z M 14.975596,11.487027 h 0.162943 l 0.09412,-0.09412 0.09412,-0.09412 0.0059,-0.294134 0.0059,-0.294133 -0.01003,-0.258839 -0.01003,-0.258836 -0.01777,-0.01804 -0.01777,-0.01804 -0.162066,0.162067 -0.162069,0.162067 -0.04655,0.185402 -0.04655,0.185403 -0.02649,0.317665 -0.02649,0.317665 z M 3.9953096,10.466439 3.9614612,10.484967 2.361375,10.209352 0.76128889,9.9337371 0.41856614,9.88086 0.07584338,9.8279827 0.03792065,9.7515733 0,9.6751641 0.06374294,8.7339365 0.12748381,7.7927089 0.24145104,6.2017547 0.35541826,4.6108005 1.0135922,3.9192779 1.671766,3.2277549 2.7460222,2.1607216 3.8202783,1.093688 3.937932,1.1125685 4.0555859,1.131449 4.87916,1.2484088 5.7027322,1.365369 7.232229,1.577678 l 1.5294947,0.2123088 0.9999164,0.1395196 0.9999149,0.1395202 0.0472,0.029171 0.0472,0.029171 v 0.2997353 0.2997353 l 0.270603,0.029884 0.270604,0.029885 0.70592,0.1144073 0.70592,0.1144072 0.303505,0.1061666 0.303504,0.1061667 0.214171,0.2158455 0.214172,0.2158457 0.220028,0.3720133 0.220028,0.3720126 -0.0083,0.00655 -0.0083,0.00655 L 13.303061,4.3092348 12.338304,4.2018977 11.608853,4.1516654 10.879401,4.101433 9.6512859,4.0473976 8.4231697,3.9933622 7.9059422,4.0110653 7.3887147,4.0287684 7.3087753,3.6054525 7.2287498,3.1821405 7.0862193,2.9295869 6.9436865,2.677034 6.9658305,2.654889 6.9879765,2.632744 8.1101554,2.624354 9.2323364,2.615964 9.8794303,2.655047 10.526524,2.69413 V 2.596221 2.498311 h -0.02127 -0.02127 L 9.8346298,2.4056056 9.1852743,2.3129087 7.2329132,2.0508497 5.2805521,1.7887909 4.6680679,1.7025541 l -0.612482,-0.086237 -0.027483,0.015389 -0.027484,0.015389 0.014265,4.4004085 0.014265,4.4004084 z M 14.820876,5.5986152 14.738518,5.5928763 14.479682,5.5550217 14.220844,5.5171681 13.438389,5.4430949 12.655935,5.3690227 11.320628,5.3164667 9.9853204,5.2639118 8.5142431,5.2869215 7.0431669,5.3099301 7.0143754,5.1298758 6.9855841,4.9498212 6.8971301,4.8697717 6.8086763,4.7897218 V 4.6815777 4.5734325 l 0.05225,-0.1146787 0.05225,-0.1146782 0.1162873,-0.052983 0.1162874,-0.052984 0.3138422,-0.045396 0.3138401,-0.045396 0.5505762,-9.317e-4 0.5505763,-9.316e-4 0.1291424,0.1764802 0.1291426,0.1764802 0.1203243,0.1336205 0.1203269,0.1336199 0.1388019,0.072452 0.1388048,0.072452 0.9671373,0.03962 0.967139,0.039621 1.071879,0.078151 1.07188,0.07815 0.09215,-0.083392 0.09215,-0.083393 0.03049,-0.2298817 0.03049,-0.2298815 0.07613,0.02129 0.07613,0.02129 0.199825,0.031074 0.199823,0.031074 0.09442,0.1200398 0.09443,0.1200405 0.09401,0.3043642 0.09401,0.3043634 v 0.065635 0.065634 z M 13.501501,4.9856546 13.279615,4.9787519 12.926656,4.9447129 12.573694,4.9106739 11.326569,4.8543825 10.079442,4.7980913 9.7970724,4.7557856 9.5147041,4.7134793 9.3146947,4.4955037 9.1146828,4.2775286 v -0.048541 -0.048541 l 0.6706248,0.031977 0.6706244,0.031977 1.058882,0.067935 1.05888,0.067935 0.447084,0.048536 0.447084,0.048536 0.176478,0.026436 0.176481,0.026436 V 4.670356 4.8104972 l -0.04872,0.091029 -0.04872,0.091029 z"
       id="path39" />
  </g>
</svg>
