<?xml version="1.0" encoding="UTF-8" standalone="no"?>
<!-- Created with Inkscape (http://www.inkscape.org/) -->

<svg
   version="1.1"
   id="svg1"
   width="16"
   height="16"
   viewBox="0 0 16 16"
   xmlns="http://www.w3.org/2000/svg"
   xmlns:svg="http://www.w3.org/2000/svg">
  <defs
     id="defs1" />
  <g
     id="g1">
    <path
       style="fill:#000000;stroke-width:0.0313223"
       d="m 13.088291,10.168247 -0.01651,0.002 -0.86053,-1.0647668 -0.860529,-1.0647655 -0.01564,-1.53e-4 -0.01567,-1.523e-4 0.0046,0.5794697 0.0046,0.5794487 h -0.591831 -0.591816 l 0.0015,-2.059439 0.0015,-2.0594404 0.127766,0.1409506 0.127765,0.1409505 0.38144,0.4541727 0.381437,0.4541732 0.733374,0.8770235 0.733359,0.8770251 0.218484,0.2584082 0.218471,0.258409 h 0.02007 0.02006 l 0.279053,-0.3366968 0.279,-0.3367141 0.925128,-1.1119411 0.925114,-1.1119405 0.230143,-0.2740701 0.230144,-0.2740702 H 15.989332 16 L 15.9975,7.1477378 15.995,9.1993466 H 15.41935 14.843628 V 8.6198472 8.0403862 h -0.02871 -0.02871 l -0.01052,0.030812 -0.01052,0.030812 -0.830036,1.0321545 -0.830035,1.0321573 z M 3.1836788,7.9974283 3.1756006,10.021807 3.0321078,9.8376115 2.8886301,9.6534162 2.4918005,9.1288705 2.0949854,8.6043249 V 7.2886856 5.9730485 H 1.4077567 0.7205424 L 0.49754646,5.6989783 0.27456608,5.4249081 0.15112829,5.2781448 0.0277055,5.1313814 v -0.011323 -0.01131 l 2.6595685,0.0015 2.6595541,0.0015 -0.020653,0.033114 -0.02066,0.033114 L 4.9624176,5.5755455 4.6193209,5.9731136 H 3.9055147 3.1917235 Z M 7.2326708,9.2267465 6.1512327,9.2228857 5.9748842,9.1969779 5.7985357,9.17107 5.6199317,9.1082958 5.4413127,9.0455205 5.2997551,8.9625631 5.1581977,8.8796047 5.0373964,8.7588052 4.9166101,8.6380038 4.8519981,8.5113702 4.7874003,8.3847361 4.7360423,8.1890176 4.6846701,7.9932983 4.6828113,7.2415627 4.6809526,6.4898293 4.7346268,6.2920268 4.788301,6.0942243 4.873808,5.9474811 4.9593157,5.8007377 5.1096814,5.6558474 5.2600471,5.5109577 5.4569989,5.4139959 5.6539663,5.3170351 5.8712018,5.261674 6.0884215,5.2063129 8.0147543,5.2060083 9.9410707,5.205703 l 0.00823,0.3758675 0.00823,0.3758667 -0.2548002,0.2819005 -0.2547844,0.281901 -0.3172056,0.3516061 -0.3172046,0.3516061 -0.00854,-0.5796778 -0.00854,-0.5796786 -1.3093554,0.0088 -1.309341,0.00882 -0.1258914,0.08334 -0.1258913,0.083342 -0.059708,0.120253 -0.059708,0.120253 v 0.7517348 0.7517342 l 0.058672,0.1180746 0.058686,0.1180768 0.087565,0.06236 0.087581,0.06236 0.1634103,0.030991 0.1634254,0.030991 0.9275522,-0.00136 0.9275672,-0.00136 0.1365132,-0.026373 0.1364982,-0.026373 0.082749,-0.061173 0.082749,-0.061173 0.068458,-0.1225142 0.068458,-0.1225148 0.5491008,0.00922 0.5491011,0.00922 L 9.9372328,8.112245 9.919793,8.2126547 9.8764662,8.3712631 9.8331196,8.5298736 9.7422027,8.6553791 9.6512859,8.780886 9.47957,8.8948642 9.3078542,9.0088415 9.0763395,9.0865025 8.8448248,9.1641635 8.5794027,9.1973973 8.3139806,9.2306211 Z"
       id="path39-3" />
  </g>
</svg>
