<?xml version="1.0" encoding="UTF-8" standalone="no"?>
<!-- Created with Inkscape (http://www.inkscape.org/) -->

<svg
   version="1.1"
   id="svg1"
   width="74"
   height="20"
   viewBox="0 0 74 20"
   xml:space="preserve"
   sodipodi:docname="logo-light.svg"
   inkscape:version="1.4.4 (dcaf3e7d9e, 2026-05-05)"
   xmlns:inkscape="http://www.inkscape.org/namespaces/inkscape"
   xmlns:sodipodi="http://sodipodi.sourceforge.net/DTD/sodipodi-0.dtd"
   xmlns="http://www.w3.org/2000/svg"
   xmlns:svg="http://www.w3.org/2000/svg"><sodipodi:namedview
     id="namedview1"
     pagecolor="#ffffff"
     bordercolor="#000000"
     borderopacity="0.25"
     inkscape:showpageshadow="2"
     inkscape:pageopacity="0.0"
     inkscape:pagecheckerboard="0"
     inkscape:deskcolor="#d1d1d1"
     inkscape:zoom="0.61444255"
     inkscape:cx="686.80139"
     inkscape:cy="-29.294846"
     inkscape:window-width="1600"
     inkscape:window-height="831"
     inkscape:window-x="0"
     inkscape:window-y="32"
     inkscape:window-maximized="1"
     inkscape:current-layer="svg1" /><defs
     id="defs1" /><g
     id="g1"
     transform="matrix(3.4668209,0,0,3.4668209,17.532808,-15.872401)"
     style="fill:#ffffff"><path
       style="fill:#ffffff;stroke-width:0.0313223"
       d="m 13.088291,10.168247 -0.01651,0.002 -0.86053,-1.0647668 -0.860529,-1.0647655 -0.01564,-1.53e-4 -0.01567,-1.523e-4 0.0046,0.5794697 0.0046,0.5794487 h -0.591831 -0.591816 l 0.0015,-2.059439 0.0015,-2.0594404 0.127766,0.1409506 0.127765,0.1409505 0.38144,0.4541727 0.381437,0.4541732 0.733374,0.8770235 0.733359,0.8770251 0.218484,0.2584082 0.218471,0.258409 h 0.02007 0.02006 l 0.279053,-0.3366968 0.279,-0.3367141 0.925128,-1.1119411 0.925114,-1.1119405 0.230143,-0.2740701 0.230144,-0.2740702 H 15.989332 16 L 15.9975,7.1477378 15.995,9.1993466 H 15.41935 14.843628 V 8.6198472 8.0403862 h -0.02871 -0.02871 l -0.01052,0.030812 -0.01052,0.030812 -0.830036,1.0321545 -0.830035,1.0321573 z M 3.1836788,7.9974283 3.1756006,10.021807 3.0321078,9.8376115 2.8886301,9.6534162 2.4918005,9.1288705 2.0949854,8.6043249 V 7.2886856 5.9730485 H 1.4077567 0.7205424 L 0.49754646,5.6989783 0.27456608,5.4249081 0.15112829,5.2781448 0.0277055,5.1313814 v -0.011323 -0.01131 l 2.6595685,0.0015 2.6595541,0.0015 -0.020653,0.033114 -0.02066,0.033114 L 4.9624176,5.5755455 4.6193209,5.9731136 H 3.9055147 3.1917235 Z M 7.2326708,9.2267465 6.1512327,9.2228857 5.9748842,9.1969779 5.7985357,9.17107 5.6199317,9.1082958 5.4413127,9.0455205 5.2997551,8.9625631 5.1581977,8.8796047 5.0373964,8.7588052 4.9166101,8.6380038 4.8519981,8.5113702 4.7874003,8.3847361 4.7360423,8.1890176 4.6846701,7.9932983 4.6828113,7.2415627 4.6809526,6.4898293 4.7346268,6.2920268 4.788301,6.0942243 4.873808,5.9474811 4.9593157,5.8007377 5.1096814,5.6558474 5.2600471,5.5109577 5.4569989,5.4139959 5.6539663,5.3170351 5.8712018,5.261674 6.0884215,5.2063129 8.0147543,5.2060083 9.9410707,5.205703 l 0.00823,0.3758675 0.00823,0.3758667 -0.2548002,0.2819005 -0.2547844,0.281901 -0.3172056,0.3516061 -0.3172046,0.3516061 -0.00854,-0.5796778 -0.00854,-0.5796786 -1.3093554,0.0088 -1.309341,0.00882 -0.1258914,0.08334 -0.1258913,0.083342 -0.059708,0.120253 -0.059708,0.120253 v 0.7517348 0.7517342 l 0.058672,0.1180746 0.058686,0.1180768 0.087565,0.06236 0.087581,0.06236 0.1634103,0.030991 0.1634254,0.030991 0.9275522,-0.00136 0.9275672,-0.00136 0.1365132,-0.026373 0.1364982,-0.026373 0.082749,-0.061173 0.082749,-0.061173 0.068458,-0.1225142 0.068458,-0.1225148 0.5491008,0.00922 0.5491011,0.00922 L 9.9372328,8.112245 9.919793,8.2126547 9.8764662,8.3712631 9.8331196,8.5298736 9.7422027,8.6553791 9.6512859,8.780886 9.47957,8.8948642 9.3078542,9.0088415 9.0763395,9.0865025 8.8448248,9.1641635 8.5794027,9.1973973 8.3139806,9.2306211 Z"
       id="path39-3" /></g><path
     style="fill:#ffffff;stroke-width:0.0568719"
     d="m 8.5075852,19.051827 -0.485285,0.01763 -0.199051,-0.0429 -0.199053,-0.04291 -0.154295,-0.101452 -0.154292,-0.10148 -0.194602,-0.293412 -0.194597,-0.293418 -0.115267,-0.373599 -0.11528,-0.373599 -0.03712,-0.280429 -0.03712,-0.280425 -0.02834,-0.152089 -0.02834,-0.152073 -0.167048,-0.05823 -0.167047,-0.05823 V 16.04974 15.634275 l -0.629643,-0.278091 -0.629644,-0.278095 -0.194999,-0.132335 -0.195,-0.132335 v 0.108859 0.108859 l -0.13712,0.159576 -0.137123,0.159575 -0.710054,0.01875 -0.710054,0.01871 -0.178665,-0.0924 -0.178662,-0.0924 -0.09369,-0.196482 -0.09369,-0.196481 H 2.1798272 2.0171681 l -0.135645,-0.135644 -0.1356461,-0.135646 -0.07062,-0.248243 -0.07062,-0.248243 -0.0045,-0.597157 -0.0045,-0.597152 0.0815,-0.280894 0.0815,-0.280893 -0.06726,-0.02243 -0.06729,-0.02243 v -0.194314 -0.194313 l 0.09952,1.73e-4 0.09953,1.68e-4 1.8483391,0.342829 1.848337,0.342826 0.199054,0.05477 0.19905,0.05478 0.349285,3.5e-4 0.349283,3.5e-4 0.03337,-0.132941 0.03337,-0.132942 0.123721,-0.157288 0.123721,-0.157288 0.232963,0.03698 0.23296,0.03697 0.294633,0.134554 0.294634,0.134552 0.16667,0.230081 0.166668,0.230081 0.127291,0.414678 0.127292,0.414683 0.021,0.07108 0.021,0.07108 h 0.112475 0.112462 l -0.08852,-0.298542 -0.08852,-0.298575 -0.106315,-0.28436 -0.106315,-0.284359 -0.177522,-0.215224 -0.177525,-0.215226 -0.275751,-0.139735 -0.275751,-0.139733 -0.528919,-0.09011 -0.528922,-0.0901 -0.07989,-0.07761 -0.07989,-0.07762 0.06908,-1.6953318 0.06908,-1.6953288 0.112798,-0.995252 0.112798,-0.9952578 0.113745,-0.5687292 0.113745,-0.5687187 0.140488,-0.4657566 0.140487,-0.4657566 0.14317,-0.1701451 0.143171,-0.1701451 0.353679,-0.1975862 0.353681,-0.1975842 0.398101,-0.1969449 0.398105,-0.1969449 0.147553,-0.034777 0.147552,-0.034777 0.116171,0.1268243 0.116172,0.1268241 0.120357,0.2398287 0.120357,0.2398269 0.05251,0.2720207 0.05251,0.2720193 0.0308,0.1829679 0.0308,0.1829664 -0.250091,0.1106226 -0.250091,0.1106227 -0.09379,0.181372 -0.09379,0.1813721 -0.0098,0.1885771 -0.0098,0.1885788 -0.454976,0.065761 -0.454974,0.065761 -0.122886,0.079104 -0.122886,0.079104 -0.06636,0.2010656 -0.06636,0.2010291 h -0.128966 -0.128954 l -0.108334,0.1195799 -0.108335,0.119581 -0.01915,0.9685171 -0.01915,0.968519 0.03635,0.193743 0.03634,0.193744 0.16762,0.14935 0.167623,0.149352 v 0.09442 0.09442 l 0.142659,0.134033 0.142665,0.134016 0.383403,0.124208 0.383404,0.124207 0.03525,0.2162276 0.03526,0.21623 0.103575,0.07574 0.103574,0.07574 h 0.06747 0.06747 l 0.05804,-0.0711 0.05803,-0.0711 0.03846,-0.5402846 0.03846,-0.540283 -0.0628,-1.563657 -0.06281,-1.5636541 -0.06938,-0.063577 -0.06938,-0.063577 -0.354621,0.03684 -0.354621,0.036841 -0.05607,0.056074 -0.05606,0.056075 -0.01586,0.1409645 -0.01585,0.1409645 0.152236,0.017588 0.152238,0.017587 0.07097,0.085514 0.07097,0.085515 -0.0015,1.0363001 -0.0015,1.0363 -0.06743,0.125991 -0.06743,0.125998 h -0.197038 -0.197051 v 0.113745 0.113745 l 0.105092,0.105098 0.105092,0.105099 0.227585,0.03639 0.227585,0.03639 0.150734,0.118579 0.150734,0.118554 v 0.2849728 0.2849718 l -0.07109,-0.02334 -0.07109,-0.02334 -0.01867,-0.194672 -0.01867,-0.1946714 -0.08436,-0.09366 -0.08437,-0.09366 -0.266638,-0.06701 -0.266641,-0.06701 -0.09953,-0.08984 -0.09952,-0.08985 v -0.1839 -0.183908 l -0.193339,-0.03627 -0.193335,-0.03626 -0.07349,-0.08855 -0.07348,-0.08855 -0.0033,-1.038647 -0.0033,-1.0386474 0.07532,-0.090764 0.07533,-0.090764 0.176217,-0.017501 0.176219,-0.017501 0.07747,-0.23349 0.07747,-0.2334883 0.14542,-0.066263 0.14542,-0.066263 0.413208,-0.034933 0.413208,-0.034933 0.03513,0.056837 0.03513,0.056837 0.05693,1.0740406 0.05693,1.0740391 0.06709,3.1101664 0.06709,3.110166 -0.09991,0.152488 -0.09991,0.152487 -0.02168,0.434027 -0.02168,0.434028 -0.228532,-0.01807 -0.228532,-0.01807 v 0.08915 0.08915 l 0.01421,7.66e-4 0.01421,7.66e-4 0.221987,0.07728 0.22199,0.07726 0.01862,0.334193 0.01862,0.334192 -0.03398,0.524512 -0.03397,0.524513 -0.334586,0.06583 -0.334583,0.06583 v 0.05266 0.05266 l 0.241704,0.104458 0.241707,0.10446 0.113744,0.03384 0.113743,0.03384 0.09953,-0.501116 0.09952,-0.501118 v -1.197373 -1.197389 l 0.09342,-0.07752 0.09342,-0.07752 -0.03795,-2.417585 -0.03795,-2.4175844 -0.0614,-1.553307 -0.0614,-1.5533066 0.02967,-0.029666 0.02967,-0.029666 0.232183,-0.031138 0.2321849,-0.031138 1.71e-4,0.050147 1.7e-4,0.050147 0.08418,0.8815146 0.08418,0.881514 0.065,0.568721 0.065,0.568718 0.06392,0.04177 0.06392,0.04177 2.161134,-0.0069 2.161133,-0.0069 2.104132,-0.03478 2.10413,-0.03478 -0.01698,-0.227498 -0.01698,-0.227487 -0.139213,-0.966823 -0.139197,-0.9668226 -0.02958,-0.1279685 -0.02956,-0.1279683 h 0.197942 0.197943 l 0.05659,0.2132697 0.05659,0.2132697 0.148156,0.853079 0.148155,0.853079 0.05739,0.298578 0.05741,0.298577 h 0.09708 0.09707 l 0.126392,-0.08852 0.126392,-0.08854 v -0.110537 -0.110522 h -0.195756 -0.195694 l -0.03074,-0.04977 -0.03076,-0.04975 -0.09104,-1.005986 -0.09104,-1.005984 0.03135,-0.081703 0.03137,-0.081703 h 0.143962 0.143962 V 6.6291738 6.5242517 l -0.09953,-0.08969 -0.09953,-0.089691 -0.156404,-0.03904 -0.156404,-0.03904 v -0.071514 -0.071514 l 0.239643,0.043822 0.239641,0.043822 0.101578,0.1254556 0.101577,0.1254557 v 0.1054413 0.1054413 l 0.118559,0.063455 0.118559,0.063455 0.0857,0.2051169 0.0857,0.2051149 0.03206,0.764735 0.03206,0.764695 -0.0894,0.177228 -0.08939,0.177229 -0.03532,0.160528 -0.03532,0.160528 -0.2538,0.112274 -0.253805,0.112274 0.0012,0.210609 0.0012,0.2106066 0.05414,0.682465 0.05413,0.682463 0.0045,0.952061 0.0045,0.952062 -0.05642,0.100071 -0.05642,0.100072 0.150478,0.157687 0.150477,0.157686 -0.0045,1.630351 -0.0045,1.630352 -0.172207,0.153874 -0.172207,0.153873 -0.304337,0.06607 -0.304339,0.06607 -0.44794,0.02535 -0.447943,0.02534 -0.221346,0.251462 -0.221347,0.251466 -0.244446,0.09334 -0.244445,0.09334 -0.422756,0.01062 -0.422762,0.01062 -0.211541,-0.04492 -0.211594,-0.04492 -0.16366,-0.137707 -0.163663,-0.137707 -2.240852,0.284567 -2.240854,0.28457 -0.767773,-0.01664 -0.7677691,-0.01664 -0.164841,0.187737 -0.164841,0.18774 -0.174516,0.09025 -0.174518,0.09025 z m 0.950732,-0.717122 0.07109,0.0012 v -0.07769 -0.07768 l -0.346042,-0.126164 -0.346039,-0.126164 -0.108936,-0.108923 -0.108936,-0.108924 -4.7e-5,-0.412318 -4.8e-5,-0.412323 -0.05793,-0.625591 -0.05793,-0.625594 -0.115158,-0.654024 -0.115158,-0.654029 -0.06304,-0.212191 -0.06304,-0.212193 -0.09085,-0.03067 -0.09085,-0.03067 -0.119902,-0.240546 -0.119906,-0.240544 -0.187082,-0.127951 -0.187084,-0.127968 h -0.187471 -0.187469 l -0.144368,0.127968 -0.144367,0.127969 -0.08686,0.341117 -0.08685,0.341114 -0.05992,0.938503 -0.05992,0.938505 0.03553,0.241703 0.03553,0.241707 h 0.167132 0.167131 l 0.001,-0.469193 10e-4,-0.469194 0.08003,-0.377597 0.08003,-0.377598 0.126075,-0.293053 0.126062,-0.293052 0.118362,-0.0829 0.118362,-0.08292 0.200617,8.85e-4 0.200614,8.85e-4 0.0627,0.04178 0.0627,0.04178 0.09193,0.284358 0.09193,0.284361 0.116348,0.654024 0.11635,0.654027 0.03682,0.93173 0.03682,0.931726 0.118732,0.13613 0.118733,0.136131 0.341231,0.139317 0.341234,0.139319 z m -1.810195,-0.62424 h 0.115631 l 0.08455,-0.129043 0.08455,-0.129043 0.06982,-0.407155 0.06982,-0.407156 -0.06434,-0.549833 -0.06434,-0.549834 -0.131366,-0.262133 -0.131366,-0.262132 -0.06449,-0.0193 -0.06449,-0.0193 -0.08976,0.08976 -0.08976,0.08976 -0.06018,0.211352 -0.06019,0.211351 -0.03491,0.430446 -0.0349,0.430443 0.06841,0.3942 0.06842,0.394197 0.106646,0.241708 0.106646,0.241704 z m 7.2221628,-0.9291 0.886599,-0.03601 0.611928,-0.08341 0.611928,-0.08342 0.512582,-0.0942 0.512584,-0.0942 0.119789,-0.09699 0.11979,-0.09699 0.02726,-0.283757 0.02727,-0.283758 -1.157813,0.126932 -1.157816,0.126931 -0.853082,0.06153 -0.853079,0.0615 -0.241705,0.03133 -0.241706,0.03133 v 0.239785 0.239783 l 0.09444,0.13483 0.09444,0.134831 z m -3.396738,-0.77706 h 0.222644 l 0.166105,-0.0859 0.166106,-0.0859 0.06688,-0.12495 0.06688,-0.124974 -0.0044,-0.154013 -0.0044,-0.154013 -0.09303,-0.179889 -0.09303,-0.179891 -0.204469,-0.08543 -0.204468,-0.08543 -0.18643,0.03497 -0.186429,0.03497 -0.141679,0.168378 -0.141677,0.168378 -0.03648,0.114934 -0.03648,0.11496 0.0651,0.197268 0.0651,0.19727 0.145733,0.114628 0.145733,0.114627 z m 2.456598,-0.256707 0.234325,-0.02501 0.853079,-0.06195 0.853082,-0.06197 1.247215,-0.141398 1.247219,-0.141398 0.04663,-0.02882 0.04663,-0.02882 v -0.171767 -0.171773 l -0.156403,0.03109 -0.156404,0.03108 -0.767773,0.08768 -0.767768,0.08768 -1.070822,0.08479 -1.070823,0.08479 h -0.332113 -0.332108 l -0.08996,0.03452 -0.08996,0.03452 v 0.155053 0.155053 l 0.03582,0.03581 0.03582,0.03581 z m 5.543054,-0.551752 0.08205,-0.01611 0.115041,-0.154221 0.115042,-0.15422 V 14.613928 14.35656 l -0.105512,-0.116584 -0.105493,-0.116584 -0.0888,0.01681 -0.0888,0.0168 -0.02843,0.502044 -0.02843,0.502042 0.02567,0.02542 0.02565,0.02544 z m -5.209202,-0.185175 0.639809,-0.0364 0.7949,-0.05775 0.794901,-0.05775 0.962754,-0.106416 0.962752,-0.106415 0.04312,-0.06979 0.04312,-0.06979 -0.01681,-0.146769 -0.01681,-0.146771 -0.106186,0.01228 -0.106187,0.01228 -0.99526,0.112759 -0.99526,0.11276 -0.881515,0.05968 -0.881513,0.05968 -0.474381,0.03401 -0.474378,0.03401 0.03285,0.122429 0.03285,0.12243 7.66e-4,0.07588 7.65e-4,0.07587 z m -11.4243938,-0.63234 0.06422,-0.108615 v -0.66544 -0.665433 l -0.06898,-0.06895 -0.06898,-0.06895 -0.06826,0.165656 -0.06825,0.165658 -0.001,0.540283 -10e-4,0.540284 0.07403,0.137048 0.07404,0.13705 z m 8.4612648,-0.193928 h 0.804635 l -0.03564,-0.462223 -0.03565,-0.462223 -0.100748,-0.205273 -0.100747,-0.205271 -0.190111,-0.126599 -0.190108,-0.126599 -0.297986,-0.111494 -0.297985,-0.111494 -0.21776,-0.04086 -0.217761,-0.04084 0.03761,0.09801 0.03761,0.09801 v 0.848427 0.848428 z m 2.0827,-0.05596 0.212184,9.27e-4 2.360186,-0.178784 2.360185,-0.178781 0.05687,-0.05259 0.05688,-0.05259 -0.0034,-1.390957 -0.0034,-1.390959 -0.06171,-0.0617 -0.06169,-0.0617 -1.840101,0.06288 -1.840103,0.06289 -0.787121,0.03653 -0.787124,0.03653 -0.03289,0.08571 -0.03289,0.08571 0.06957,1.37003 0.06957,1.370029 0.0264,0.127969 0.0264,0.127969 z m 0.510761,-0.311569 -0.497628,0.03484 v -0.05857 -0.05857 l 0.184835,-0.02951 0.184833,-0.02951 1.023692,-0.05969 1.023697,-0.05969 1.156655,-0.08847 1.156653,-0.08848 0.03292,0.03292 0.03292,0.03292 -0.02809,0.02809 -0.02809,0.02809 -1.872366,0.140393 -1.872369,0.140392 z m -0.398102,-0.428598 -0.09953,-5.7e-5 v -0.08182 -0.08182 l 0.241704,-0.03121 0.241707,-0.03121 1.491961,-0.08645 1.491958,-0.08645 0.691184,-0.03716 0.691184,-0.03716 -0.02658,0.08025 -0.02658,0.08025 -0.535711,0.0401 -0.535713,0.04008 -1.763028,0.116392 -1.763031,0.116393 z m 0.676558,-0.589499 -0.844768,0.03872 0.02065,-0.108526 0.02063,-0.108526 0.283847,-0.01403 0.28385,-0.01403 1.62085,-0.08499 1.62085,-0.08499 0.49763,-0.03488 0.497632,-0.03488 v 0.119794 0.119795 l -0.09953,6.45e-4 -0.09953,6.44e-4 -1.478671,0.08337 -1.478671,0.08337 z m -0.587895,-0.548727 -0.238349,6.85e-4 -0.03821,-0.06183 -0.03821,-0.06183 0.04908,-0.04698 0.04907,-0.04698 1.933647,-0.09027 1.933644,-0.09027 0.469195,-0.03351 0.469194,-0.03351 v 0.112811 0.112812 l -0.49763,0.03667 -0.497628,0.03667 -1.677725,0.08241 -1.677721,0.0824 z m 0.195697,-0.625905 -0.497632,0.0011 V 11.5115 11.397755 l 0.241707,-8.45e-4 0.241707,-8.47e-4 2.047389,-0.08343 2.047389,-0.08343 0.156403,-0.0011 0.156405,-9.85e-4 v 0.113745 0.113744 l -0.09953,0.0011 -0.09953,0.0011 -1.848338,0.08328 -1.848337,0.08328 z m -11.6876908,2.398672 0.06634,-0.06636 0.02201,-0.525839 0.02197,-0.52584 -0.06413,-0.165657 -0.06413,-0.165658 -0.06634,0.06634 -0.06637,0.06636 -0.02197,0.52584 -0.02201,0.52584 0.06413,0.165658 0.06413,0.165657 z M 19.285086,13.615682 h 0.19691 l 0.113742,-0.113744 0.113742,-0.113745 0.0071,-0.35545 0.0071,-0.355449 -0.01212,-0.312798 -0.01212,-0.312794 -0.02147,-0.02179 -0.02147,-0.02179 -0.195851,0.195851 -0.195854,0.195853 -0.05625,0.224051 -0.05625,0.224053 -0.03201,0.383886 -0.03202,0.383887 z m -13.2692728,-1.233344 -0.0409,0.02239 -1.933645,-0.333072 -1.933645,-0.333069 -0.4141682,-0.0639 -0.4141661,-0.06392 -0.04583,-0.09235 -0.04583,-0.09235 0.07702,-1.137439 0.07702,-1.1374376 0.1377251,-1.922611 0.137724,-1.9226088 0.7953772,-0.8356798 0.79538,-0.8356798 1.298199,-1.2894711 1.298198,-1.2894698 0.14218,0.022821 0.142181,0.022821 0.995259,0.1413456 0.995256,0.1413459 1.848341,0.2565677 1.8483398,0.2565676 1.208362,0.1686031 1.20836,0.168603 0.05704,0.035245 0.05704,0.035245 V 2.667061 3.02928 l 0.327014,0.036113 0.327015,0.036113 0.853078,0.1382614 0.853078,0.1382614 0.366775,0.1282976 0.366773,0.1282977 0.258817,0.2608424 0.25882,0.2608407 0.265896,0.4495652 0.265895,0.4495633 -0.01006,0.00797 -0.01006,0.00797 -1.165849,-0.1297228 -1.165873,-0.1297185 -0.881515,-0.0607 -0.881516,-0.060701 -1.484131,-0.065292 -1.484134,-0.065292 -0.625051,0.0214 -0.625052,0.021401 -0.0966,-0.5115618 L 9.923241,3.5796321 9.750999,3.2744295 9.578754,2.9692286 l 0.02676,-0.026755 0.02676,-0.026755 1.356114,-0.01022 1.356114,-0.01022 0.78199,0.047236 0.781988,0.047236 V 2.8714385 2.7531224 h -0.02567 -0.0257 L 13.072418,2.6410992 12.287696,2.5290786 9.9283372,2.2123909 7.5689812,1.8957014 6.8288162,1.7914905 6.0886542,1.6872797 l -0.03322,0.018593 -0.03322,0.018593 0.01724,5.3177318 0.01724,5.3177325 z M 19.098113,6.499755 18.998583,6.492825 18.68579,6.447079 18.372993,6.401333 17.427425,6.311816 16.481859,6.222299 14.86819,6.158791 13.254519,6.095283 11.476777,6.123094 9.6990342,6.150905 9.6642442,5.9333171 9.6294542,5.7157275 9.5225592,5.6189845 9.4156682,5.5222415 V 5.3915518 5.2608629 l 0.06314,-0.1385905 0.06314,-0.1385906 0.140529,-0.064027 0.14053,-0.064027 0.3792668,-0.05486 0.379265,-0.05486 0.665352,-0.00113 0.665351,-0.00113 0.156064,0.2132697 0.156064,0.2132698 0.145408,0.161481 0.145411,0.1614811 0.167736,0.08756 0.16774,0.087559 1.16875,0.047878 1.168752,0.047877 1.295326,0.094439 1.295328,0.094439 0.111367,-0.1007804 0.111369,-0.1007805 0.03684,-0.2778034 0.03684,-0.2778033 0.092,0.025731 0.092,0.025733 0.241481,0.03755 0.241478,0.03755 0.114106,0.1450713 0.114124,0.1450713 0.113604,0.3678127 0.113602,0.3678125 v 0.079309 0.079311 z M 17.503696,5.7590144 17.235555,5.7506944 16.809017,5.7095574 16.382476,5.6684034 14.875372,5.6003734 13.368265,5.5323434 13.027031,5.4812254 12.6858,5.4300904 12.444096,5.1666747 12.202389,4.9032608 v -0.058655 -0.058655 l 0.810425,0.038642 0.810425,0.038642 1.27962,0.082101 1.279617,0.082101 0.540285,0.058655 0.540285,0.058655 0.213266,0.031953 0.213272,0.031953 v 0.169348 0.1693655 l -0.05889,0.1099998 -0.05889,0.1099997 z"
     id="path39" /></svg>
